<?xml version="1.0" encoding="UTF-8"?>
<!DOCTYPE svg PUBLIC "-//W3C//DTD SVG 1.1//EN" "http://www.w3.org/Graphics/SVG/1.1/DTD/svg11.dtd">
<!-- Creator: CorelDRAW 2020 (64-Bit) -->
<svg xmlns="http://www.w3.org/2000/svg" xml:space="preserve" width="43.3493mm" height="43.3493mm" version="1.1" style="shape-rendering:geometricPrecision; text-rendering:geometricPrecision; image-rendering:optimizeQuality; fill-rule:evenodd; clip-rule:evenodd"
viewBox="0 0 4334.92 4334.92"
 xmlns:xlink="http://www.w3.org/1999/xlink"
 xmlns:xodm="http://www.corel.com/coreldraw/odm/2003">
 <defs>
  <style type="text/css">
   <![CDATA[
    .fil0 {fill:none}
    .fil1 {fill:#0E9F99}
   ]]>
  </style>
 </defs>
 <g id="Layer_x0020_1">
  <metadata id="CorelCorpID_0Corel-Layer"/>
  <rect class="fil0" x="-0" y="-0" width="4334.92" height="4334.92"/>
  <path class="fil1" d="M1989.4 3099.95c-243.15,289.97 -666.14,448.36 -947.07,216.29 -188.17,-155.44 -266.14,-392.21 -202.68,-615.51 -284.4,-57.94 -486.82,-286.02 -487.97,-549.84 -1.17,-263.81 199.25,-493.33 483.13,-553.33 -71.51,-221.22 9.64,-459.71 206.26,-606.21 196.62,-146.51 470.82,-172.8 697,-66.83 -116.04,143.5 -174.06,215.23 -174.06,215.23 -131.99,-44.98 -280.97,-7.42 -368.24,92.85 -87.28,100.27 -92.73,240.15 -13.47,345.73 45.97,51.88 56.49,122.49 27.37,183.54 -29.14,61.05 -93.16,102.53 -166.4,107.83 -131.34,-28.63 -268.21,21.89 -339.98,125.47 -71.77,103.58 -62.4,237.08 23.27,331.61 85.68,94.53 228.5,128.97 354.79,85.55 74.53,-25.27 158.33,1.69 198.52,63.86 40.18,62.17 25.08,141.49 -35.78,187.89 -112.1,81.43 -147.53,221.98 -85.55,339.34 61.98,117.38 205.08,180.71 345.5,152.91 69.15,-13.68 128.68,-47.68 171.57,-94.21 -8.78,-9.14 -17.01,-18.79 -24.59,-28.85 -217.68,-289.1 -233.73,-956.88 -167.22,-1298.8 53.49,-275.04 185.36,-518.15 360.6,-655.66 235.35,-184.68 537.08,-196.21 778.49,-86.37l-0.11 -0.15c186.77,-241.16 558.65,-190.3 736.58,-43.8 177.93,146.51 251.38,385 186.67,606.22 256.9,59.99 438.28,289.52 437.22,553.33 -1.04,263.81 -184.23,491.9 -441.6,549.84 57.42,223.3 -12.29,461 -183.42,615.51 -470.58,424.86 -997.31,396.72 -1051.35,-1095.79 -11.5,-42.92 -11.38,-71.89 -2.77,-92.25l0 -0.06 0.02 0c25.53,-60.28 125.26,-45.45 216.49,-96.68 237.91,-133.56 296.35,-418.13 138.71,-614.1 -153.02,-190.24 -441.24,-230.87 -651.14,-56.24 -151.49,126.05 -243.45,403.4 -264.9,654.34 -12.32,144.02 -5.42,307.73 10.81,445.95 9.81,83.54 50.64,325.05 93.09,373.12 34.61,-31.34 65.12,-252.01 67.81,-320.7 5.07,-129.69 -5.61,-250.42 -28.83,-367.19 -31.84,-160.21 -62.3,-155.33 -22.91,-331.08 13.76,-61.4 72.83,-255.08 118.34,-281.57 54.4,93.01 107.84,240.84 144.4,359.89 42.51,138.4 65.09,276.88 79.03,434.17 24.25,273.44 -47.6,680.35 -204.48,806.25 -3.7,2.97 -7.42,5.8 -11.15,8.5zm665.6 -851.83c48.15,-40.09 101.13,-68.86 148.11,-109.6 45.62,-39.55 84.16,-83.97 118.61,-133.6 73.53,-105.92 119.59,-246.71 117.94,-393 -2.22,-196.05 -84.37,-361.16 -210.05,-480.71 16.59,-7.68 35.16,-19.02 56.5,-34.3 129.23,-69.42 254.28,-7.43 333.26,92.84 78.98,100.27 83.91,240.14 12.18,345.73 -41.59,51.88 -51.12,122.49 -24.76,183.54 26.37,61.04 84.3,102.52 150.58,107.81 118.87,-28.61 242.73,21.91 307.68,125.48 64.95,103.59 56.47,237.08 -21.06,331.62 -77.53,94.53 -206.79,128.97 -321.08,85.55 -67.44,-25.27 -143.28,1.69 -179.65,63.86 -36.37,62.16 -22.7,141.49 32.38,187.89 101.45,81.43 133.51,221.98 77.42,339.35 -56.09,117.37 -200.18,206.27 -328.96,224.57 -228.07,32.39 -267.12,-806.96 -269.1,-937.03z"/>
 </g>
</svg>
